Coordinates
version=1
nRows=4
nColumns=114
inDegrees=yes

Units are S.I. units (second, meters, Newtons, ...)
If the header above contains a line with 'inDegrees', this indicates whether rotational values are in degrees (yes) or radians (no).

endheader 
time	pelvis_tilt	pelvis_list	pelvis_rotation	pelvis_tx	pelvis_ty	pelvis_tz	hip_flexion_l	hip_adduction_l	hip_rotation_l	hip_flexion_r	hip_adduction_r	hip_rotation_r	knee_angle_l	knee_angle_r	ankle_angle_l	ankle_angle_r	subtalar_angle_l	subtalar_angle_r	mtp_angle_l	mtp_angle_r	lumbar_extension	lumbar_bending	lumbar_rotation	arm_flex_l	arm_add_l	arm_rot_l	arm_flex_r	arm_add_r	arm_rot_r	elbow_flex_l	elbow_flex_r	pro_sup_l	pro_sup_r	addbrev_l/activation	addlong_l/activation	addmagDist_l/activation	addmagIsch_l/activation	addmagMid_l/activation	addmagProx_l/activation	bflh_l/activation	bfsh_l/activation	edl_l/activation	ehl_l/activation	fdl_l/activation	fhl_l/activation	gaslat_l/activation	gasmed_l/activation	glmax1_l/activation	glmax2_l/activation	glmax3_l/activation	glmed1_l/activation	glmed2_l/activation	glmed3_l/activation	glmin1_l/activation	glmin2_l/activation	glmin3_l/activation	grac_l/activation	iliacus_l/activation	perbrev_l/activation	perlong_l/activation	piri_l/activation	psoas_l/activation	recfem_l/activation	sart_l/activation	semimem_l/activation	semiten_l/activation	soleus_l/activation	tfl_l/activation	tibant_l/activation	tibpost_l/activation	vasint_l/activation	vaslat_l/activation	vasmed_l/activation	addbrev_r/activation	addlong_r/activation	addmagDist_r/activation	addmagIsch_r/activation	addmagMid_r/activation	addmagProx_r/activation	bflh_r/activation	bfsh_r/activation	edl_r/activation	ehl_r/activation	fdl_r/activation	fhl_r/activation	gaslat_r/activation	gasmed_r/activation	glmax1_r/activation	glmax2_r/activation	glmax3_r/activation	glmed1_r/activation	glmed2_r/activation	glmed3_r/activation	glmin1_r/activation	glmin2_r/activation	glmin3_r/activation	grac_r/activation	iliacus_r/activation	perbrev_r/activation	perlong_r/activation	piri_r/activation	psoas_r/activation	recfem_r/activation	sart_r/activation	semimem_r/activation	semiten_r/activation	soleus_r/activation	tfl_r/activation	tibant_r/activation	tibpost_r/activation	vasint_r/activation	vaslat_r/activation	vasmed_r/activation	
          1.73000000	         -7.28668990	          4.14126602	        -35.04664045	          1.29415319	          1.00158323	          0.42240453	         10.70064927	         -8.28382571	         -7.42571413	          7.00211045	         -3.09586095	         -9.12929335	         15.61240206	         17.99437872	          1.10579641	          1.91385792	         -7.80572071	        -14.31811622	        -11.08187211	        -11.84040290	         -5.48332341	         -3.16198946	          1.20117487	        -16.19289211	        -25.95161578	          5.13852291	        -25.77812330	        -18.74555405	          3.79838154	         34.38228871	         42.39262537	         84.07522687	         79.04748981	          0.04303407	          0.08076464	          0.04598949	          0.03304942	          0.03508749	          0.05804987	          0.09158906	          0.36232937	          0.34289400	          0.18061329	          0.03090962	          0.04845223	          0.08097524	          0.15740875	          0.07989572	          0.09167994	          0.09209888	          0.15688465	          0.01001696	          0.10482628	          0.04929241	          0.02706523	          0.14974809	          0.14235048	          0.29976712	          0.14794781	          0.23535574	          0.17852756	          0.40291208	          0.13944067	          0.39491373	          0.16254305	          0.15718141	          0.11771627	          0.13580448	          0.57505898	          0.04837620	          0.13957706	          0.14833084	          0.15390076	          0.01005168	          0.14118327	          0.01728165	          0.06523027	          0.01000743	          0.01203663	          0.06487440	          0.41233729	          0.33428498	          0.19577834	          0.02723361	          0.01587717	          0.13298128	          0.16346955	          0.08217735	          0.12705772	          0.05996561	          0.18579392	          0.09430787	          0.18827738	          0.20075271	          0.13383106	          0.15702188	          0.27445113	          0.52038597	          0.26838618	          0.25777391	          0.19033990	          0.40547048	          0.10847474	          0.46049817	          0.06874117	          0.23557263	          0.10922709	          0.31627168	          0.60602483	          0.02002431	          0.17332128	          0.16337133	          0.18662447	
          1.74000000	         -7.14749387	          4.00429377	        -35.19412834	          1.29826087	          1.01353977	          0.42493941	          9.39075875	         -8.20958078	         -8.30776944	          5.62640131	         -2.83564846	         -9.27521400	         12.15178692	         14.98339364	         -0.42465122	          0.24443942	         -6.99541306	        -13.64919700	         -9.78018125	        -10.44903244	         -5.02255334	         -3.17054519	          1.80822245	        -16.89876928	        -26.16379365	          3.32868253	        -27.34942668	        -19.51494434	          3.62287522	         36.06311738	         45.02673081	         85.69242574	         79.76182412	          0.03586243	          0.06730426	          0.03832516	          0.02754197	          0.02924039	          0.04837576	          0.07633641	          0.30194188	          0.29029691	          0.15051397	          0.02576105	          0.04037738	          0.08551573	          0.14637628	          0.06658148	          0.07640064	          0.07674937	          0.16952794	          0.10023126	          0.08736194	          0.04877416	          0.02255954	          0.12479382	          0.11862651	          0.24980662	          0.12329501	          0.20295313	          0.14877740	          0.33576058	          0.11620073	          0.32909539	          0.17754373	          0.13098658	          0.09809699	          0.12283834	          0.47921727	          0.04031383	          0.11631439	          0.12360910	          0.12825076	          0.01000912	          0.11765510	          0.01440184	          0.05435873	          0.01000493	          0.01003527	          0.05406207	          0.34361637	          0.27857253	          0.16315184	          0.02269814	          0.01323717	          0.13839338	          0.16296011	          0.06848138	          0.10588155	          0.04997145	          0.15483221	          0.07859538	          0.15689885	          0.16731532	          0.22372563	          0.13086721	          0.22870995	          0.49957363	          0.22365587	          0.21481207	          0.19029095	          0.39310650	          0.15693157	          0.38695872	          0.05728440	          0.19631071	          0.09102274	          0.32698413	          0.51360647	          0.01668809	          0.14443456	          0.13614282	          0.15552050	
          1.75000000	         -6.92219750	          3.79545054	        -35.33223304	          1.30248960	          1.02463449	          0.42720390	          8.02936959	         -8.07655015	         -9.00301627	          4.20804465	         -2.63921772	         -9.43355316	          8.93732923	         12.16692282	         -2.16240883	         -1.52575472	         -6.35467791	        -12.76438229	         -8.62573403	         -9.21764493	         -4.71231685	         -3.10391281	          2.45590510	        -17.32197094	        -26.29301632	          2.02199794	        -29.00420499	        -20.12028673	          3.16500639	         37.44021021	         47.44129440	         86.37542600	         80.02307084	          0.02988598	          0.05608733	          0.03193797	          0.02295200	          0.02436750	          0.04031400	          0.06361489	          0.26066222	          0.28485641	          0.13945358	          0.02146837	          0.03364983	          0.11713160	          0.16659045	          0.05548542	          0.06366754	          0.06395800	          0.14127694	          0.09662791	          0.09927205	          0.05537726	          0.10271807	          0.10400774	          0.09885735	          0.20818250	          0.11345639	          0.19850857	          0.12401770	          0.27980346	          0.09683409	          0.27425107	          0.15146663	          0.10915828	          0.08174757	          0.13236559	          0.42218482	          0.03359510	          0.09692878	          0.10300763	          0.10687571	          0.01002084	          0.17573447	          0.01200224	          0.04529912	          0.01000567	          0.01002415	          0.04505190	          0.28634844	          0.23214472	          0.13596450	          0.02291092	          0.01683900	          0.11983026	          0.14451447	          0.05706808	          0.08823474	          0.04164298	          0.12902826	          0.06549949	          0.13075018	          0.13943568	          0.18646531	          0.20697071	          0.19059239	          0.52951984	          0.18638052	          0.17901070	          0.19130956	          0.51266790	          0.13077751	          0.32250886	          0.04773707	          0.16359245	          0.07585239	          0.32449931	          0.43507720	          0.02457903	          0.12036226	          0.11345240	          0.12960051	
          1.76000000	         -6.65289403	          3.53434667	        -35.44578886	          1.30667682	          1.03482724	          0.42913640	          6.74387507	         -7.92844312	         -9.46578090	          2.88860184	         -2.49789959	         -9.58943834	          6.15257896	          9.71435652	         -3.90243950	         -3.28883212	         -5.94146853	        -11.77377923	         -7.60626298	         -8.13050946	         -4.52193778	         -2.96338553	          3.02737119	        -17.58440294	        -26.29657405	          1.01069938	        -30.44357472	        -20.61188380	          2.56360167	         38.45591160	         49.48421181	         86.41598102	         79.93845793	          0.02490565	          0.04673993	          0.02661531	          0.01912704	          0.02030678	          0.03359593	          0.05301546	          0.27722352	          0.29921683	          0.12822121	          0.01790535	          0.02804185	          0.12957626	          0.17620495	          0.04623866	          0.05305661	          0.05329851	          0.11773561	          0.08060473	          0.13977653	          0.04628915	          0.13192803	          0.15052740	          0.08238365	          0.21773880	          0.12025624	          0.19501544	          0.13490048	          0.23317588	          0.08069523	          0.26620644	          0.12738653	          0.09096838	          0.06812313	          0.13856488	          0.41104145	          0.02799643	          0.08077410	          0.08583974	          0.08906318	          0.01002653	          0.21372863	          0.01000415	          0.03774945	          0.01000498	          0.01022560	          0.03754336	          0.23862604	          0.20629678	          0.11331241	          0.01909458	          0.01404008	          0.12553633	          0.16967191	          0.04755700	          0.07352908	          0.03470259	          0.10752515	          0.05458596	          0.10895959	          0.11620514	          0.19091056	          0.17250011	          0.15882801	          0.57570812	          0.15532006	          0.15202961	          0.15942956	          0.57784664	          0.10898157	          0.32904398	          0.03978099	          0.13632726	          0.06321060	          0.29122328	          0.38156199	          0.02048330	          0.10030202	          0.09454372	          0.10800052	
